# xmcd
#
# Track frame offsets: 
#        150
#        11305
#        22706
#        45299
#        62003
#        72578
#        92396
#        109533
#        128783
#        144092
#        164660
#
# Disc length: 2395 seconds
#
# Revision: 1
# Processed by: cddbd v1.5.2PL0 Copyright (c) Steve Scherf et al.
# Submitted via: ExactAudioCopy v1.1
#
DISCID=7c09590b
DTITLE=Zydeco-Playboys - Women's Only
DYEAR=1996
DGENRE=Zydeco
TTITLE0=Let's say Goodnight
TTITLE1=Hey Papa Joe
TTITLE2=Don't worry be happy
TTITLE3=Whatcha gonna do?
TTITLE4=Oli's Hot Walz
TTITLE5=I'll comming back...
TTITLE6=Someone else is steppin' in
TTITLE7=I wanna know?
TTITLE8=Love my Zydeco
TTITLE9=Lead me on
TTITLE10=Buck's hot road
EXTD=Procuced and Recorded by Oliver Kraus\r\nArrangements by ZYDECO PLA
EXTD=YBOYS\r\n
EXTT0=David Hidalgo/Loui Perez
EXTT1=Oliver Kraus
EXTT2=Bobby McFerrin
EXTT3=Stanley Dural Jr.
EXTT4=Oliver Kraus
EXTT5=Olover Kraus
EXTT6=Denise LaSalle 
EXTT7=Oliver Kraus
EXTT8=Zachary Richard
EXTT9=Malone
EXTT10=Stanley Dural Jr.
PLAYORDER=
